HIERARCHY
ROOT Hips
{
	OFFSET 0.000000 71.427986 0.000000
	CHANNELS 6 Xposition Yposition Zposition Xrotation Yrotation Zrotation
	JOINT Pelvis
	{
		OFFSET 0.000000 0.000000 0.000000
		CHANNELS 3 Xrotation Yrotation Zrotation
		JOINT LeftUpLeg
		{
			OFFSET 6.797100 -2.508499 -1.318700
			CHANNELS 3 Xrotation Yrotation Zrotation
			JOINT LeftLeg
			{
				OFFSET 0.069008 -29.241863 0.690200
				CHANNELS 3 Xrotation Yrotation Zrotation
				JOINT LeftFoot
				{
					OFFSET -0.069008 -29.568123 -0.266800
					CHANNELS 3 Xrotation Yrotation Zrotation
					JOINT LeftToeBase
					{
						OFFSET 3.145500 -8.631000 16.059900
						CHANNELS 3 Xrotation Yrotation Zrotation
						End Site
						{
							OFFSET 0.000000 18.501587 0.000000
						}
					}
				}
			}
			JOINT Left_ShortSleeve
			{
				OFFSET 0.265923 -10.480953 1.153800
				CHANNELS 3 Xrotation Yrotation Zrotation
				End Site
				{
					OFFSET 1.725763 19.823879 0.000000
				}
			}
		}
		JOINT RightUpLeg
		{
			OFFSET -6.797100 -2.508499 -1.318700
			CHANNELS 3 Xrotation Yrotation Zrotation
			JOINT RightLeg
			{
				OFFSET -0.082453 -29.241932 0.688000
				CHANNELS 3 Xrotation Yrotation Zrotation
				JOINT RightFoot
				{
					OFFSET 0.082453 -29.568058 -0.264600
					CHANNELS 3 Xrotation Yrotation Zrotation
					JOINT RightToeBase
					{
						OFFSET -3.115300 -8.682800 16.113400
						CHANNELS 3 Xrotation Yrotation Zrotation
						End Site
						{
							OFFSET 0.000000 18.567114 0.000000
						}
					}
				}
			}
			JOINT Right_ShortSleeve
			{
				OFFSET -0.265923 -10.480953 1.153800
				CHANNELS 3 Xrotation Yrotation Zrotation
				End Site
				{
					OFFSET -1.725766 19.823910 0.000000
				}
			}
		}
	}
	JOINT Spine
	{
		OFFSET 0.000000 13.368103 0.470500
		CHANNELS 3 Xrotation Yrotation Zrotation
		JOINT Spine1
		{
			OFFSET 0.147000 13.837402 0.538800
			CHANNELS 3 Xrotation Yrotation Zrotation
			JOINT Spine2
			{
				OFFSET 0.168000 16.242897 -1.435500
				CHANNELS 3 Xrotation Yrotation Zrotation
				JOINT Neck
				{
					OFFSET 0.217200 18.631500 -1.679100
					CHANNELS 3 Xrotation Yrotation Zrotation
					JOINT Head
					{
						OFFSET 0.000000 6.599396 1.385900
						CHANNELS 3 Xrotation Yrotation Zrotation
						JOINT Hat
						{
							OFFSET -0.532200 27.220596 -10.096100
							CHANNELS 3 Xrotation Yrotation Zrotation
							End Site
							{
								OFFSET 0.000000 22.029861 0.000000
							}
						}
						JOINT HairD
						{
							OFFSET -10.777400 17.437393 -1.325900
							CHANNELS 3 Xrotation Yrotation Zrotation
							JOINT HairD1
							{
								OFFSET -3.290299 -11.051193 1.062200
								CHANNELS 3 Xrotation Yrotation Zrotation
								End Site
								{
									OFFSET 0.000000 11.579437 0.000000
								}
							}
						}
						JOINT HairB
						{
							OFFSET -10.777400 17.437393 1.467900
							CHANNELS 3 Xrotation Yrotation Zrotation
							JOINT HairB1
							{
								OFFSET -1.561200 -12.956299 3.590200
								CHANNELS 3 Xrotation Yrotation Zrotation
								End Site
								{
									OFFSET 0.000000 13.534866 0.000000
								}
							}
						}
						JOINT HairA
						{
							OFFSET 9.713100 17.437393 1.467900
							CHANNELS 3 Xrotation Yrotation Zrotation
							JOINT HairA1
							{
								OFFSET 1.561200 -12.956299 3.590200
								CHANNELS 3 Xrotation Yrotation Zrotation
								End Site
								{
									OFFSET 0.000000 13.534866 0.000000
								}
							}
						}
						JOINT HairC
						{
							OFFSET 9.713100 17.437393 -1.325900
							CHANNELS 3 Xrotation Yrotation Zrotation
							JOINT HairC1
							{
								OFFSET 3.290300 -11.051193 1.062200
								CHANNELS 3 Xrotation Yrotation Zrotation
								End Site
								{
									OFFSET 0.000000 11.579437 0.000000
								}
							}
						}
					}
				}
				JOINT LeftShoulder
				{
					OFFSET 5.101800 15.108002 -2.763700
					CHANNELS 3 Xrotation Yrotation Zrotation
					JOINT LeftArm
					{
						OFFSET 9.825497 2.506317 -1.597400
						CHANNELS 3 Xrotation Yrotation Zrotation
						JOINT LeftForeArm
						{
							OFFSET 21.966244 0.000000 0.000000
							CHANNELS 3 Xrotation Yrotation Zrotation
							JOINT LeftHand
							{
								OFFSET 33.879036 0.000000 0.000000
								CHANNELS 3 Xrotation Yrotation Zrotation
								JOINT LeftHandThumb1
								{
									OFFSET 6.715286 -2.359680 3.363841
									CHANNELS 3 Xrotation Yrotation Zrotation
									JOINT LeftHandThumb2
									{
										OFFSET 2.507072 -1.447464 1.447461
										CHANNELS 3 Xrotation Yrotation Zrotation
										JOINT LeftHandThumb3
										{
											OFFSET 2.898338 -1.673355 1.673357
											CHANNELS 3 Xrotation Yrotation Zrotation
											End Site
											{
												OFFSET -0.295959 3.727692 -0.131651
											}
										}
									}
								}
								JOINT LeftHandIndex1
								{
									OFFSET 14.190811 -0.254547 3.840278
									CHANNELS 3 Xrotation Yrotation Zrotation
									JOINT LeftHandIndex2
									{
										OFFSET 3.551727 0.000000 -0.000000
										CHANNELS 3 Xrotation Yrotation Zrotation
										JOINT LeftHandIndex3
										{
											OFFSET 2.894196 0.000000 0.000000
											CHANNELS 3 Xrotation Yrotation Zrotation
											End Site
											{
												OFFSET -1.000603 2.690872 0.366626
											}
										}
									}
								}
								JOINT LeftHandMiddle1
								{
									OFFSET 13.776489 0.000000 0.000000
									CHANNELS 3 Xrotation Yrotation Zrotation
									JOINT LeftHandMiddle2
									{
										OFFSET 3.438232 0.000000 0.000000
										CHANNELS 3 Xrotation Yrotation Zrotation
										JOINT LeftHandMiddle3
										{
											OFFSET 3.691551 0.000000 0.000000
											CHANNELS 3 Xrotation Yrotation Zrotation
											End Site
											{
												OFFSET -1.082298 3.499527 0.457670
											}
										}
									}
								}
								JOINT LeftHandRing1
								{
									OFFSET 13.966164 -0.268127 -3.067488
									CHANNELS 3 Xrotation Yrotation Zrotation
									JOINT LeftHandRing2
									{
										OFFSET 3.162567 0.000000 0.000000
										CHANNELS 3 Xrotation Yrotation Zrotation
										JOINT LeftHandRing3
										{
											OFFSET 3.324348 0.000000 0.000000
											CHANNELS 3 Xrotation Yrotation Zrotation
											End Site
											{
												OFFSET -0.861900 3.184998 0.405154
											}
										}
									}
								}
								JOINT LeftHandPinky1
								{
									OFFSET 13.131393 -0.168503 -5.746925
									CHANNELS 3 Xrotation Yrotation Zrotation
									JOINT LeftHandPinky2
									{
										OFFSET 2.849182 0.000000 0.000000
										CHANNELS 3 Xrotation Yrotation Zrotation
										JOINT LeftHandPinky3
										{
											OFFSET 2.805038 0.000000 0.000000
											CHANNELS 3 Xrotation Yrotation Zrotation
											End Site
											{
												OFFSET -0.882500 2.642609 0.325652
											}
										}
									}
								}
							}
							JOINT Left_Sleeve
							{
								OFFSET 6.592125 -0.646545 0.805568
								CHANNELS 3 Xrotation Yrotation Zrotation
								End Site
								{
									OFFSET -0.000179 20.275787 -0.000000
								}
							}
						}
					}
				}
				JOINT RightShoulder
				{
					OFFSET -5.731700 15.108002 -2.763700
					CHANNELS 3 Xrotation Yrotation Zrotation
					JOINT RightArm
					{
						OFFSET -9.825497 2.506317 -1.597400
						CHANNELS 3 Xrotation Yrotation Zrotation
						JOINT RightForeArm
						{
							OFFSET -21.966242 0.000000 0.000000
							CHANNELS 3 Xrotation Yrotation Zrotation
							JOINT RightHand
							{
								OFFSET -33.879032 0.000000 0.000000
								CHANNELS 3 Xrotation Yrotation Zrotation
								JOINT RightHandThumb1
								{
									OFFSET -6.715286 -2.359680 3.363841
									CHANNELS 3 Xrotation Yrotation Zrotation
									JOINT RightHandThumb2
									{
										OFFSET -2.507072 -1.447464 1.447461
										CHANNELS 3 Xrotation Yrotation Zrotation
										JOINT RightHandThumb3
										{
											OFFSET -2.898338 -1.673355 1.673357
											CHANNELS 3 Xrotation Yrotation Zrotation
											End Site
											{
												OFFSET 0.295959 3.727692 -0.131651
											}
										}
									}
								}
								JOINT RightHandIndex1
								{
									OFFSET -14.190811 -0.254547 3.840278
									CHANNELS 3 Xrotation Yrotation Zrotation
									JOINT RightHandIndex2
									{
										OFFSET -3.551727 0.000000 -0.000000
										CHANNELS 3 Xrotation Yrotation Zrotation
										JOINT RightHandIndex3
										{
											OFFSET -2.894196 0.000000 0.000000
											CHANNELS 3 Xrotation Yrotation Zrotation
											End Site
											{
												OFFSET 1.000603 2.690872 0.366626
											}
										}
									}
								}
								JOINT RightHandMiddle1
								{
									OFFSET -13.776489 0.000000 0.000000
									CHANNELS 3 Xrotation Yrotation Zrotation
									JOINT RightHandMiddle2
									{
										OFFSET -3.438232 0.000000 0.000000
										CHANNELS 3 Xrotation Yrotation Zrotation
										JOINT RightHandMiddle3
										{
											OFFSET -3.691551 0.000000 0.000000
											CHANNELS 3 Xrotation Yrotation Zrotation
											End Site
											{
												OFFSET 1.082298 3.499527 0.457670
											}
										}
									}
								}
								JOINT RightHandRing1
								{
									OFFSET -13.966164 -0.268127 -3.067488
									CHANNELS 3 Xrotation Yrotation Zrotation
									JOINT RightHandRing2
									{
										OFFSET -3.162567 0.000000 0.000000
										CHANNELS 3 Xrotation Yrotation Zrotation
										JOINT RightHandRing3
										{
											OFFSET -3.324348 0.000000 0.000000
											CHANNELS 3 Xrotation Yrotation Zrotation
											End Site
											{
												OFFSET 0.861900 3.184998 0.405154
											}
										}
									}
								}
								JOINT RightHandPinky1
								{
									OFFSET -13.131393 -0.168503 -5.746925
									CHANNELS 3 Xrotation Yrotation Zrotation
									JOINT RightHandPinky2
									{
										OFFSET -2.849182 0.000000 0.000000
										CHANNELS 3 Xrotation Yrotation Zrotation
										JOINT RightHandPinky3
										{
											OFFSET -2.805038 0.000000 0.000000
											CHANNELS 3 Xrotation Yrotation Zrotation
											End Site
											{
												OFFSET 0.882500 2.642609 0.325652
											}
										}
									}
								}
							}
							JOINT Right_Sleeve
							{
								OFFSET -6.592125 -0.646545 0.805568
								CHANNELS 3 Xrotation Yrotation Zrotation
								End Site
								{
									OFFSET 0.000179 20.275787 -0.000000
								}
							}
						}
					}
				}
				JOINT Bind_Right_JacketString
				{
					OFFSET -3.534800 11.969597 7.200700
					CHANNELS 3 Xrotation Yrotation Zrotation
					JOINT Bind_Right_JacketString1
					{
						OFFSET -0.319900 -6.102600 2.794100
						CHANNELS 3 Xrotation Yrotation Zrotation
						End Site
						{
							OFFSET 0.000000 6.719452 0.000000
						}
					}
				}
				JOINT Bind_Left_JacketString
				{
					OFFSET 2.904800 11.969597 7.200700
					CHANNELS 3 Xrotation Yrotation Zrotation
					JOINT Bind_Left_JacketString1
					{
						OFFSET 0.364800 -5.904503 3.186800
						CHANNELS 3 Xrotation Yrotation Zrotation
						End Site
						{
							OFFSET 0.000000 6.719513 0.000000
						}
					}
				}
				JOINT HairE
				{
					OFFSET 5.915200 17.612701 -11.592200
					CHANNELS 3 Xrotation Yrotation Zrotation
					JOINT HairE1
					{
						OFFSET 0.289200 -7.171898 -1.284500
						CHANNELS 3 Xrotation Yrotation Zrotation
						End Site
						{
							OFFSET 0.000000 7.291756 0.000000
						}
					}
				}
				JOINT HairF
				{
					OFFSET -0.864800 17.612701 -11.592200
					CHANNELS 3 Xrotation Yrotation Zrotation
					JOINT HairF1
					{
						OFFSET 0.000000 -14.087097 -2.127501
						CHANNELS 3 Xrotation Yrotation Zrotation
						End Site
						{
							OFFSET 0.000000 14.246841 0.000000
						}
					}
				}
				JOINT HairG
				{
					OFFSET -8.087700 17.612701 -11.592200
					CHANNELS 3 Xrotation Yrotation Zrotation
					JOINT HairG1
					{
						OFFSET -0.293600 -6.081398 -0.910100
						CHANNELS 3 Xrotation Yrotation Zrotation
						End Site
						{
							OFFSET 0.000000 6.156120 0.000000
						}
					}
				}
			}
		}
	}
	JOINT Pouch
	{
		OFFSET 0.000000 4.394501 10.847300
		CHANNELS 3 Xrotation Yrotation Zrotation
		End Site
		{
			OFFSET 0.000000 21.880577 0.000000
		}
	}
	JOINT Bag
	{
		OFFSET -13.229000 4.813004 -0.593300
		CHANNELS 3 Xrotation Yrotation Zrotation
		End Site
		{
			OFFSET 0.000000 21.880577 0.000000
		}
	}
	JOINT OccupyGuyFacialAnim_Joint
	{
		OFFSET 1.000000 -70.206398 -1.655000
		CHANNELS 3 Xrotation Yrotation Zrotation
		End Site
		{
			OFFSET 0.000000 21.880577 0.000000
		}
	}
}
MOTION
Frames: 4
Frame Time: 0.033333
-1.016259 73.948532 190.383255 -1.745898 -6.889404 -1.392637 0.000000 0.000001 0.000000 -14.006870 4.912237 13.270077 40.239445 -0.590055 -1.492523 5.076283 -8.472650 -8.908819 0.000000 -0.000000 -0.000000 -0.000000 -0.000000 0.000001 -2.095124 1.857712 -5.967212 28.022996 0.361208 1.056547 -0.698114 -5.844705 12.722402 -0.000002 0.000001 -0.000001 -0.000000 0.000000 -0.000000 1.961485 0.488837 0.186214 3.926718 1.017995 -0.038175 3.926719 1.017995 -0.038175 23.451811 -1.200613 3.296709 -20.124324 -5.654819 4.631599 0.000000 -0.000000 0.000000 0.000000 -0.000000 0.000000 0.000000 -0.000000 0.000001 0.000000 -0.000000 0.000000 0.000000 -0.000000 0.000000 0.000000 -0.000000 0.000000 0.000000 -0.000000 0.000000 0.000000 -0.000000 0.000000 0.000000 -0.000000 0.000000 4.782001 -23.645652 7.443918 -19.872893 12.537278 -71.067722 -0.009665 -103.179337 0.001358 73.348070 27.051948 88.802349 -25.389586 -7.508661 -7.786356 -1.645304 0.348636 2.571625 0.000001 0.000001 0.000000 -1.207319 -21.792130 -46.736997 0.743275 1.330169 -72.079007 0.000000 0.000002 0.000000 -2.567323 -9.302356 -49.217766 -2.756886 -3.765790 -65.643008 0.000000 0.000000 0.000001 -0.954799 9.472143 -54.084908 -3.067083 -5.048293 -68.311324 -0.000001 -0.000000 -0.000003 -1.339890 18.457920 -49.028153 -5.322889 -9.359417 -78.082210 -0.000001 -0.000002 0.000002 0.000000 -0.000001 -0.000000 2.690400 5.895646 -12.296544 -48.633488 14.101545 68.957904 0.464927 82.927751 -0.476204 48.632648 -4.010457 26.487822 -14.407768 -2.422449 -19.090206 1.743991 0.933830 -0.804807 0.000001 0.000000 -0.000000 -15.582908 -0.370727 23.726062 0.592904 -1.894914 40.974827 -0.000002 0.000002 0.000001 -9.031292 8.576949 32.924797 -0.606655 1.475082 33.808378 0.000002 0.000004 0.000002 -10.958905 9.407091 41.755088 -1.048315 3.934607 33.914317 -0.000001 -0.000001 0.000004 -8.857590 12.160395 39.996201 -1.092642 7.430027 27.194345 -0.000002 0.000000 0.000001 0.000001 0.000001 0.000001 -0.000001 -0.000000 0.000000 -0.000000 0.000000 0.000000 -0.000001 -0.000000 0.000000 -0.000001 -0.000000 0.000000 -0.000001 -0.000000 0.000000 -0.000000 0.000000 0.000000 -0.000001 -0.000000 0.000000 -0.000001 -0.000000 0.000000 -0.000001 -0.000000 0.000000 -0.000000 0.000000 0.000000 0.000000 0.000001 0.000000 0.000000 0.000001 0.000000 0.000000 0.000001 0.000000 
-0.957749 73.909508 190.692169 -1.564406 -7.039093 -1.592809 -0.000000 -0.000000 -0.000000 -12.246457 4.788769 13.506010 38.344808 -0.652795 -1.427399 2.935265 -9.441890 -9.236122 0.000002 0.000000 0.000000 -0.000001 -0.000000 0.000000 -1.302415 1.729751 -5.752407 26.653780 0.341282 1.003645 -0.705454 -5.588751 12.032553 0.000001 0.000001 -0.000000 0.000000 -0.000001 -0.000000 2.066947 0.357510 0.294871 4.135820 0.761474 0.191736 4.135823 0.761475 0.191735 23.439230 -0.813573 3.008190 -16.404994 -4.500922 4.627065 -0.000000 0.000000 -0.000001 -0.000000 0.000000 -0.000001 -0.000000 0.000000 -0.000000 -0.000000 0.000000 -0.000001 0.000001 0.000000 -0.000001 -0.000000 0.000000 -0.000001 0.000001 0.000000 -0.000001 -0.000000 0.000000 -0.000001 -0.000000 0.000000 -0.000001 4.979231 -22.960267 9.831376 -17.927623 13.868478 -73.950376 -0.007399 -104.503493 0.003283 72.880092 27.139178 90.020240 -25.579818 -7.539599 -7.666196 -1.648777 0.349336 2.576932 -0.000001 0.000002 -0.000001 -1.476459 -21.764394 -47.505742 0.743473 1.330218 -72.091438 0.000002 0.000001 -0.000002 -2.691057 -9.326351 -49.877672 -2.757806 -3.766178 -65.655439 0.000000 0.000001 0.000001 -0.949056 9.433049 -54.676894 -3.068074 -5.048696 -68.323803 -0.000001 -0.000000 -0.000000 -1.304163 18.406950 -49.588317 -5.324331 -9.359716 -78.094792 0.000001 0.000001 0.000001 0.000002 0.000002 0.000001 3.084170 5.702086 -14.140811 -48.401534 14.328321 68.865328 0.648404 84.576730 -0.659620 47.464593 -4.907639 25.800761 -14.407775 -2.422451 -19.090198 1.743949 0.933966 -0.804777 0.000001 -0.000001 0.000000 -15.582901 -0.370723 23.726059 0.592901 -1.894915 40.974834 -0.000002 0.000002 0.000004 -9.031282 8.576941 32.924794 -0.606657 1.475110 33.808364 0.000001 0.000001 -0.000001 -10.958905 9.407108 41.755081 -1.048307 3.934595 33.914328 0.000004 0.000001 0.000000 -8.857582 12.160403 39.996198 -1.092634 7.430009 27.194335 -0.000002 0.000001 0.000001 -0.000003 -0.000001 0.000000 -0.000000 0.000001 -0.000000 -0.000000 0.000000 -0.000000 -0.000000 0.000001 -0.000000 -0.000000 0.000001 -0.000000 -0.000000 0.000001 -0.000000 -0.000000 0.000000 -0.000000 -0.000000 0.000001 -0.000000 -0.000000 0.000001 -0.000000 -0.000000 0.000001 -0.000000 -0.000000 0.000000 -0.000000 -0.000000 -0.000000 -0.000000 -0.000000 -0.000000 -0.000000 -0.000000 -0.000000 -0.000000 
-0.842878 73.859169 190.702133 -1.276366 -7.359083 -1.792267 -0.000000 0.000001 0.000000 -10.753463 5.438022 13.674592 36.023944 -0.631582 -1.347069 0.867687 -9.811344 -9.628402 -0.000002 -0.000000 0.000001 0.000000 0.000000 -0.000000 -0.636924 2.331630 -5.552524 25.131246 0.341012 0.940745 -0.990570 -6.163713 12.368611 -0.000001 -0.000000 0.000000 -0.000000 -0.000000 -0.000001 2.205425 0.277804 0.356180 4.411788 0.603189 0.345372 4.411788 0.603189 0.345372 23.359305 -0.542027 2.513397 -14.624555 -3.718586 4.679860 -0.000000 -0.000001 0.000001 -0.000000 -0.000001 0.000001 -0.000000 -0.000001 0.000001 -0.000000 -0.000001 0.000001 -0.000000 0.000000 0.000000 -0.000000 -0.000001 0.000001 -0.000000 0.000000 0.000000 -0.000000 -0.000001 0.000001 -0.000000 -0.000001 0.000001 4.933559 -21.785124 12.003760 -16.735558 13.353296 -75.494784 -0.009936 -105.098525 0.001155 71.592725 28.331310 91.401523 -25.662252 -7.545491 -7.630950 -1.650689 0.349716 2.579918 0.000003 0.000002 -0.000001 -1.773456 -21.730056 -48.342289 0.743455 1.330215 -72.091410 0.000002 0.000001 -0.000000 -2.827404 -9.350609 -50.595009 -2.757808 -3.766194 -65.655460 -0.000000 0.000000 0.000001 -0.942290 9.390337 -55.319949 -3.068059 -5.048693 -68.323803 -0.000001 -0.000000 -0.000002 -1.264055 18.351038 -50.196744 -5.324315 -9.359699 -78.094812 0.000001 0.000000 -0.000001 0.000000 -0.000003 -0.000002 3.426269 5.719960 -15.508923 -48.542452 14.291810 68.475911 0.904602 85.909908 -0.915583 46.474444 -5.717849 25.063097 -14.407775 -2.422452 -19.090198 1.743967 0.933892 -0.804792 -0.000000 0.000001 -0.000000 -15.582902 -0.370746 23.726059 0.592918 -1.894905 40.974824 -0.000001 -0.000001 0.000004 -9.031280 8.576939 32.924783 -0.606662 1.475086 33.808357 0.000005 0.000003 -0.000000 -10.958899 9.407088 41.755081 -1.048312 3.934600 33.914331 0.000004 0.000000 0.000001 -8.857582 12.160395 39.996198 -1.092639 7.430005 27.194345 -0.000000 0.000001 -0.000003 0.000000 -0.000003 0.000000 -0.000000 0.000000 -0.000000 0.000000 0.000000 -0.000000 -0.000000 0.000000 -0.000000 -0.000000 0.000000 -0.000000 -0.000000 0.000000 -0.000000 0.000000 0.000000 -0.000000 -0.000000 0.000000 -0.000000 -0.000000 0.000000 -0.000000 -0.000000 0.000000 -0.000000 0.000000 0.000000 -0.000000 -0.000000 0.000001 0.000000 -0.000000 0.000001 0.000000 -0.000000 0.000001 0.000000 
-0.681532 73.801712 190.652237 -0.947452 -7.893975 -1.985045 -0.000000 0.000000 0.000000 -9.170297 6.460289 13.673234 33.327140 -0.569853 -1.252795 -1.226231 -9.600380 -10.372639 0.000001 0.000000 -0.000000 -0.000000 -0.000000 0.000001 0.305777 2.394806 -5.667303 22.963600 0.359042 0.845764 -1.731316 -5.949401 13.474187 0.000002 -0.000000 0.000000 -0.000000 0.000001 -0.000000 2.298662 0.252368 0.398981 4.597671 0.551361 0.473858 4.597667 0.551363 0.473858 23.175472 -0.326549 1.857662 -13.296457 -3.113388 4.745819 -0.000000 0.000000 0.000001 -0.000000 0.000000 0.000001 -0.000000 0.000000 0.000001 -0.000000 0.000000 0.000001 -0.000002 0.000000 0.000001 -0.000000 0.000000 0.000001 -0.000002 0.000000 0.000001 -0.000000 0.000000 0.000001 -0.000000 0.000000 0.000001 4.759795 -20.607772 13.696083 -15.991616 12.365152 -76.461147 -0.014446 -105.327671 -0.002139 70.349985 29.654588 92.593063 -25.705885 -7.545527 -7.619126 -1.651927 0.349961 2.581786 -0.000002 -0.000000 0.000003 -1.625385 -21.747691 -47.925047 0.743486 1.330216 -72.091431 0.000001 0.000001 -0.000000 -2.759344 -9.338719 -50.237175 -2.757814 -3.766204 -65.655432 0.000002 0.000000 0.000002 -0.945623 9.411651 -54.999169 -3.068069 -5.048684 -68.323782 -0.000000 -0.000001 -0.000001 -1.283987 18.378984 -49.893238 -5.324338 -9.359725 -78.094805 -0.000000 -0.000001 -0.000001 -0.000002 0.000003 0.000003 3.611263 5.650380 -16.657570 -48.713292 14.250713 68.327054 1.140463 86.691445 -1.151884 45.776765 -6.236915 23.967124 -14.407780 -2.422477 -19.090208 1.743953 0.933988 -0.804773 0.000002 -0.000001 0.000003 -15.582908 -0.370740 23.726062 0.592902 -1.894930 40.974834 -0.000003 0.000001 -0.000001 -9.031286 8.576937 32.924797 -0.606659 1.475085 33.808385 0.000002 0.000000 -0.000001 -10.958911 9.407068 41.755088 -1.048312 3.934612 33.914300 -0.000002 0.000002 -0.000003 -8.857581 12.160369 39.996191 -1.092625 7.430022 27.194344 -0.000000 0.000002 -0.000003 -0.000003 0.000001 0.000001 0.000001 -0.000000 0.000000 0.000001 -0.000000 0.000000 0.000001 -0.000000 0.000000 0.000001 -0.000000 0.000000 0.000001 -0.000000 0.000000 0.000001 -0.000000 0.000000 0.000001 -0.000000 0.000000 0.000001 -0.000000 0.000000 0.000001 -0.000000 0.000000 0.000001 -0.000000 0.000000 -0.000000 0.000000 0.000000 -0.000000 0.000000 0.000000 -0.000000 0.000000 0.000000 
